<svg width="150" height="45" viewBox="0 0 150 45" fill="none" xmlns="http://www.w3.org/2000/svg">
<path id="Vector 1" d="M2.22858 41.1385C1.40015 41.1385 0.728577 41.8101 0.728577 42.6385C0.728577 43.467 1.40015 44.1385 2.22858 44.1385V41.1385ZM35.6815 23.9405L35.0785 25.3139L35.6815 23.9405ZM111.272 22.4325L110.462 21.17L111.272 22.4325ZM2.22858 44.1385C6.45419 44.1385 9.91369 42.408 12.8737 40.0621C15.7974 37.7451 18.349 34.7286 20.7034 32.0694C23.1231 29.3364 25.3127 27.0077 27.6497 25.6734C29.8656 24.4083 32.1938 24.0475 35.0785 25.3139L36.2845 22.567C32.4439 20.8809 29.1175 21.381 26.1623 23.0681C23.3281 24.6862 20.8297 27.4011 18.4573 30.0807C16.0195 32.8341 13.6748 35.5994 11.0104 37.7109C8.38236 39.7937 5.56205 41.1385 2.22858 41.1385V44.1385ZM35.0785 25.3139C45.2995 29.8011 52.5561 31.3597 57.9378 31.0119C63.4298 30.6569 66.8546 28.3244 69.3499 25.4052C70.569 23.979 71.5582 22.4236 72.4494 20.9594C73.3611 19.4616 74.1468 18.1017 75.0267 16.8922C76.7254 14.5571 78.5603 13.0756 81.6793 13.0756V10.0756C77.2393 10.0756 74.6111 12.3639 72.6007 15.1274C71.626 16.4672 70.7455 17.9888 69.8868 19.3996C69.0076 20.844 68.1222 22.2243 67.0695 23.4559C65.0213 25.852 62.3144 27.7228 57.7444 28.0181C53.064 28.3206 46.3283 26.9764 36.2845 22.567L35.0785 25.3139ZM81.6793 13.0756C88.5875 13.0756 92.8338 17.1024 97.0612 20.7682C99.1016 22.5375 101.258 24.3244 103.694 25.1216C106.284 25.969 109.021 25.6586 112.082 23.6951L110.462 21.17C108.055 22.7143 106.248 22.8008 104.627 22.2703C102.852 21.6895 101.128 20.3236 99.0267 18.5017C94.9713 14.9851 89.8893 10.0756 81.6793 10.0756V13.0756ZM112.082 23.6951C115.268 21.6515 117.807 19.3235 120.149 17.0419C122.518 14.7343 124.629 12.5351 127.089 10.5584C131.882 6.70648 137.982 3.72656 149.229 3.72656V0.726562C137.316 0.726562 130.549 3.92908 125.21 8.2199C122.603 10.3145 120.331 12.6767 118.056 14.8929C115.754 17.135 113.388 19.293 110.462 21.17L112.082 23.6951Z" fill="url(#paint0_linear_1_522)"/>
<defs>
<linearGradient id="paint0_linear_1_522" x1="75.7286" y1="2.22656" x2="75.7286" y2="42.6385" gradientUnits="userSpaceOnUse">
<stop stop-color="white"/>
<stop offset="1" stop-color="white" stop-opacity="0.35"/>
</linearGradient>
</defs>
</svg>
